<svg width="43" height="44" viewBox="0 0 43 44" fill="none" xmlns="http://www.w3.org/2000/svg">
<path d="M9.02669 22.42C7.22669 22.42 5.72669 21.92 4.52669 20.92C3.32669 19.92 2.40669 18.6 1.76669 16.96C1.16669 15.28 0.866687 13.48 0.866687 11.56C0.866687 9.56 1.16669 7.72 1.76669 6.04C2.40669 4.36 3.34669 3.02 4.58669 2.02C5.82669 1.02 7.34669 0.52 9.14669 0.52C10.9467 0.52 12.4467 1.02 13.6467 2.02C14.8867 3.02 15.8067 4.36 16.4067 6.04C17.0467 7.72 17.3667 9.54 17.3667 11.5C17.3667 13.42 17.0467 15.22 16.4067 16.9C15.7667 18.58 14.8267 19.92 13.5867 20.92C12.3867 21.92 10.8667 22.42 9.02669 22.42ZM9.14669 19.3C10.8667 19.3 12.0867 18.56 12.8067 17.08C13.5667 15.6 13.9467 13.76 13.9467 11.56C13.9467 9.24 13.5267 7.34 12.6867 5.86C11.8867 4.38 10.6667 3.64 9.02669 3.64C7.34669 3.64 6.12669 4.4 5.36669 5.92C4.64669 7.44 4.28669 9.3 4.28669 11.5C4.28669 13.78 4.68669 15.66 5.48669 17.14C6.32669 18.58 7.54669 19.3 9.14669 19.3ZM33.7467 43.48C31.9867 43.48 30.4867 42.98 29.2467 41.98C28.0067 40.98 27.0667 39.66 26.4267 38.02C25.8267 36.34 25.5267 34.54 25.5267 32.62C25.5267 30.62 25.8467 28.78 26.4867 27.1C27.1267 25.42 28.0667 24.08 29.3067 23.08C30.5467 22.08 32.0667 21.58 33.8667 21.58C35.6667 21.58 37.1667 22.08 38.3667 23.08C39.6067 24.08 40.5267 25.42 41.1267 27.1C41.7267 28.78 42.0267 30.6 42.0267 32.56C42.0267 34.48 41.7067 36.28 41.0667 37.96C40.4267 39.64 39.4867 40.98 38.2467 41.98C37.0467 42.98 35.5467 43.48 33.7467 43.48ZM33.8667 40.36C35.5467 40.36 36.7667 39.62 37.5267 38.14C38.2867 36.66 38.6667 34.82 38.6667 32.62C38.6667 30.3 38.2467 28.4 37.4067 26.92C36.6067 25.44 35.3867 24.7 33.7467 24.7C32.0667 24.7 30.8467 25.46 30.0867 26.98C29.3267 28.5 28.9467 30.36 28.9467 32.56C28.9467 34.84 29.3667 36.72 30.2067 38.2C31.0467 39.64 32.2667 40.36 33.8667 40.36ZM8.36669 43.18C7.92669 43.18 7.52669 43.04 7.16669 42.76C6.84669 42.44 6.68669 42.04 6.68669 41.56C6.68669 41.24 6.78669 40.92 6.98669 40.6L32.6667 1.6C33.0267 1.08 33.4667 0.819999 33.9867 0.819999C34.4267 0.819999 34.8067 0.959999 35.1267 1.24C35.4867 1.52 35.6667 1.92 35.6667 2.44C35.6667 2.72 35.5667 3.04 35.3667 3.4L9.68669 42.4C9.32669 42.92 8.88669 43.18 8.36669 43.18Z" fill="black"/>
</svg>
